<?xml version="1.0" encoding="UTF-8"?>
<svg xmlns="http://www.w3.org/2000/svg" xmlns:xlink="http://www.w3.org/1999/xlink" width="121px" height="121px" viewBox="0 0 121 121" version="1.1">
<g id="surface1">
<path style=" stroke:none;fill-rule:nonzero;fill:rgb(0%,0%,0%);fill-opacity:1;" d="M 5.042969 105.875 L 5.042969 95.792969 L 115.957031 95.792969 L 115.957031 105.875 Z M 20.167969 90.75 C 17.394531 90.75 15.019531 89.761719 13.046875 87.789062 C 11.070312 85.8125 10.082031 83.441406 10.082031 80.667969 L 10.082031 25.207031 C 10.082031 22.433594 11.070312 20.0625 13.046875 18.085938 C 15.019531 16.113281 17.394531 15.125 20.167969 15.125 L 100.832031 15.125 C 103.605469 15.125 105.980469 16.113281 107.953125 18.085938 C 109.929688 20.0625 110.917969 22.433594 110.917969 25.207031 L 110.917969 80.667969 C 110.917969 83.441406 109.929688 85.8125 107.953125 87.789062 C 105.980469 89.761719 103.605469 90.75 100.832031 90.75 Z M 20.167969 80.667969 L 100.832031 80.667969 L 100.832031 25.207031 L 20.167969 25.207031 Z M 20.167969 80.667969 L 20.167969 25.207031 Z M 20.167969 80.667969 "/>
</g>
</svg>
