<svg width="187" height="187" xmlns="http://www.w3.org/2000/svg" xmlns:xlink="http://www.w3.org/1999/xlink" xml:space="preserve" overflow="hidden"><g transform="translate(1 1)"><path d="M27.2063 0 157.794 0C158.242 0 158.686 0.00900394 159.129 0.032054 159.573 0.0547439 160.017 0.086798 160.461 0.132538 160.904 0.173956 161.348 0.2287 161.787 0.292808 162.226 0.361238 162.665 0.43471 163.104 0.521508 163.539 0.608306 163.973 0.70879 164.403 0.814316 164.838 0.923804 165.268 1.04302 165.693 1.17087 166.119 1.29909 166.539 1.44063 166.96 1.5919 167.381 1.73812 167.793 1.90271 168.204 2.07199 168.616 2.24126 169.023 2.41954 169.426 2.61186 169.828 2.80383 170.226 3.00047 170.619 3.2108 171.013 3.4215 171.401 3.64083 171.781 3.86953 172.165 4.09823 172.54 4.3363 172.911 4.583 173.281 4.83007 173.643 5.09083 174 5.35626 174.361 5.62134 174.708 5.89146 175.056 6.1749 175.399 6.45834 175.733 6.74647 176.067 7.04864 176.396 7.34577 176.717 7.65227 177.032 7.96776 177.348 8.28362 177.654 8.6038 177.952 8.93767 178.253 9.26685 178.542 9.60072 178.825 9.94827 179.109 10.2915 179.383 10.6437 179.648 11.0003 179.914 11.3572 180.17 11.7231 180.417 12.089 180.664 12.4596 180.902 12.8393 181.13 13.2189 181.359 13.6031 181.579 13.9874 181.789 14.3807 181.999 14.774 182.196 15.172 182.388 15.5743 182.58 15.9769 182.759 16.3839 182.928 16.7956 183.102 17.2072 183.262 17.6189 183.408 18.0399 183.559 18.4606 183.701 18.8816 183.829 19.307 183.957 19.7366 184.076 20.1623 184.186 20.5967 184.295 21.0267 184.392 21.4611 184.478 21.9005 184.566 22.3348 184.639 22.7738 184.707 23.2132 184.771 23.6523 184.826 24.096 184.867 24.5393 184.913 24.983 184.945 25.4268 184.968 25.8705 184.991 26.3142 185 26.7626 185 27.2063L185 157.794C185 158.242 184.991 158.686 184.968 159.129 184.945 159.573 184.913 160.017 184.867 160.461 184.826 160.904 184.771 161.348 184.707 161.787 184.639 162.226 184.566 162.665 184.478 163.104 184.392 163.539 184.295 163.973 184.186 164.403 184.076 164.838 183.957 165.268 183.829 165.693 183.701 166.119 183.559 166.539 183.408 166.96 183.262 167.381 183.102 167.793 182.928 168.204 182.759 168.616 182.58 169.023 182.388 169.426 182.196 169.828 181.999 170.226 181.789 170.619 181.579 171.013 181.359 171.401 181.13 171.781 180.902 172.165 180.664 172.54 180.417 172.911 180.17 173.281 179.914 173.643 179.648 174 179.383 174.361 179.109 174.708 178.825 175.056 178.542 175.399 178.253 175.733 177.952 176.067 177.654 176.396 177.348 176.716 177.032 177.032 176.717 177.348 176.396 177.654 176.067 177.952 175.733 178.253 175.399 178.542 175.056 178.825 174.708 179.109 174.361 179.383 174 179.648 173.643 179.914 173.281 180.17 172.911 180.417 172.54 180.664 172.165 180.902 171.781 181.13 171.401 181.359 171.013 181.579 170.619 181.789 170.226 181.999 169.828 182.196 169.426 182.388 169.023 182.58 168.616 182.759 168.204 182.928 167.793 183.102 167.381 183.262 166.96 183.408 166.539 183.559 166.119 183.701 165.693 183.829 165.268 183.957 164.838 184.076 164.403 184.186 163.973 184.295 163.539 184.392 163.104 184.478 162.665 184.566 162.226 184.639 161.787 184.707 161.348 184.771 160.904 184.826 160.461 184.867 160.017 184.913 159.573 184.945 159.129 184.968 158.686 184.991 158.242 185 157.794 185L27.2063 185C26.7626 185 26.3142 184.991 25.8705 184.968 25.4268 184.945 24.983 184.913 24.5397 184.867 24.096 184.826 23.6566 184.771 23.2129 184.707 22.7738 184.639 22.3348 184.566 21.9005 184.478 21.4611 184.392 21.0267 184.295 20.5967 184.186 20.1623 184.076 19.737 183.957 19.307 183.829 18.8816 183.701 18.4606 183.559 18.0399 183.408 17.6236 183.262 17.2072 183.102 16.7956 182.928 16.3839 182.759 15.9769 182.58 15.5747 182.388 15.172 182.196 14.774 181.999 14.3807 181.789 13.9874 181.579 13.6031 181.359 13.2189 181.13 12.8393 180.902 12.4596 180.664 12.089 180.417 11.7231 180.17 11.3572 179.914 11.0006 179.648 10.6437 179.383 10.2915 179.109 9.94827 178.825 9.60072 178.542 9.26685 178.253 8.93767 177.952 8.6038 177.654 8.28362 177.348 7.96776 177.032 7.65227 176.716 7.34577 176.396 7.04864 176.067 6.74683 175.733 6.45834 175.399 6.1749 175.056 5.89146 174.708 5.62134 174.361 5.35626 174 5.09083 173.643 4.83475 173.281 4.583 172.911 4.3363 172.54 4.09823 172.165 3.86953 171.781 3.64083 171.401 3.4215 171.013 3.2108 170.619 3.00047 170.226 2.80383 169.828 2.61186 169.426 2.41954 169.023 2.24126 168.616 2.07199 168.204 1.90271 167.793 1.7428 167.381 1.5919 166.96 1.44099 166.539 1.29909 166.119 1.17087 165.693 1.04302 165.268 0.923804 164.838 0.814316 164.403 0.70915 163.973 0.608306 163.539 0.521508 163.104 0.43435 162.665 0.361238 162.226 0.292808 161.787 0.2287 161.348 0.173956 160.904 0.132538 160.461 0.086798 160.017 0.0547439 159.573 0.032054 159.129 0.00900394 158.686 0 158.242 0 157.794L0 27.2063C0 26.7626 0.00900394 26.3142 0.032054 25.8705 0.0547439 25.4268 0.086798 24.983 0.132538 24.5393 0.173956 24.096 0.2287 23.6523 0.292808 23.2132 0.361238 22.7738 0.43435 22.3348 0.521508 21.9005 0.608306 21.4611 0.70915 21.0267 0.814316 20.5967 0.923804 20.1623 1.04302 19.7366 1.17087 19.307 1.29909 18.8816 1.44099 18.4606 1.5919 18.0399 1.7428 17.6189 1.90271 17.2072 2.07199 16.7956 2.24126 16.3839 2.41954 15.9769 2.61186 15.5743 2.80383 15.172 3.00047 14.774 3.2108 14.3807 3.4215 13.9874 3.64083 13.6031 3.86953 13.2189 4.09823 12.8393 4.3363 12.4596 4.583 12.089 4.83475 11.7231 5.09083 11.3572 5.35626 11.0003 5.62134 10.6437 5.89146 10.2915 6.1749 9.94827 6.45834 9.60072 6.74683 9.26685 7.04864 8.93767 7.34577 8.6038 7.65227 8.28362 7.96776 7.96776 8.28362 7.65227 8.6038 7.34577 8.93767 7.04864 9.26685 6.74647 9.60072 6.45834 9.94827 6.1749 10.2915 5.89146 10.6437 5.62134 11.0006 5.35626 11.3572 5.09083 11.7231 4.83007 12.089 4.583 12.4596 4.3363 12.8393 4.09823 13.2189 3.86953 13.6031 3.64083 13.9874 3.4215 14.3807 3.2108 14.774 3.00047 15.172 2.80383 15.5747 2.61186 15.9769 2.41954 16.3839 2.24126 16.7956 2.07199 17.2072 1.90271 17.6236 1.73812 18.0399 1.5919 18.4606 1.44063 18.8816 1.29909 19.307 1.17087 19.737 1.04302 20.1623 0.923804 20.5967 0.814316 21.0267 0.70879 21.4611 0.608306 21.9005 0.521508 22.3348 0.43471 22.7738 0.361238 23.2129 0.292808 23.6566 0.2287 24.096 0.173956 24.5397 0.132538 24.983 0.086798 25.4268 0.0547439 25.8705 0.032054 26.3142 0.00900394 26.7626 0 27.2063 0Z" fill="#7499FF" fill-rule="evenodd"/><path d="M27.2063 0 157.794 0C158.242 0 158.686 0.00900394 159.129 0.032054 159.573 0.0547439 160.017 0.086798 160.461 0.132538 160.904 0.173956 161.348 0.2287 161.787 0.292808 162.226 0.361238 162.665 0.43471 163.104 0.521508 163.539 0.608306 163.973 0.70879 164.403 0.814316 164.838 0.923804 165.268 1.04302 165.693 1.17087 166.119 1.29909 166.539 1.44063 166.96 1.5919 167.381 1.73812 167.793 1.90271 168.204 2.07199 168.616 2.24126 169.023 2.41954 169.426 2.61186 169.828 2.80383 170.226 3.00047 170.619 3.2108 171.013 3.4215 171.401 3.64083 171.781 3.86953 172.165 4.09823 172.54 4.3363 172.911 4.583 173.281 4.83007 173.643 5.09083 174 5.35626 174.361 5.62134 174.708 5.89146 175.056 6.1749 175.399 6.45834 175.733 6.74647 176.067 7.04864 176.396 7.34577 176.717 7.65227 177.032 7.96776 177.348 8.28362 177.654 8.6038 177.952 8.93767 178.253 9.26685 178.542 9.60072 178.825 9.94827 179.109 10.2915 179.383 10.6437 179.648 11.0003 179.914 11.3572 180.17 11.7231 180.417 12.089 180.664 12.4596 180.902 12.8393 181.13 13.2189 181.359 13.6031 181.579 13.9874 181.789 14.3807 181.999 14.774 182.196 15.172 182.388 15.5743 182.58 15.9769 182.759 16.3839 182.928 16.7956 183.102 17.2072 183.262 17.6189 183.408 18.0399 183.559 18.4606 183.701 18.8816 183.829 19.307 183.957 19.7366 184.076 20.1623 184.186 20.5967 184.295 21.0267 184.392 21.4611 184.478 21.9005 184.566 22.3348 184.639 22.7738 184.707 23.2132 184.771 23.6523 184.826 24.096 184.867 24.5393 184.913 24.983 184.945 25.4268 184.968 25.8705 184.991 26.3142 185 26.7626 185 27.2063L185 157.794C185 158.242 184.991 158.686 184.968 159.129 184.945 159.573 184.913 160.017 184.867 160.461 184.826 160.904 184.771 161.348 184.707 161.787 184.639 162.226 184.566 162.665 184.478 163.104 184.392 163.539 184.295 163.973 184.186 164.403 184.076 164.838 183.957 165.268 183.829 165.693 183.701 166.119 183.559 166.539 183.408 166.96 183.262 167.381 183.102 167.793 182.928 168.204 182.759 168.616 182.58 169.023 182.388 169.426 182.196 169.828 181.999 170.226 181.789 170.619 181.579 171.013 181.359 171.401 181.13 171.781 180.902 172.165 180.664 172.54 180.417 172.911 180.17 173.281 179.914 173.643 179.648 174 179.383 174.361 179.109 174.708 178.825 175.056 178.542 175.399 178.253 175.733 177.952 176.067 177.654 176.396 177.348 176.716 177.032 177.032 176.717 177.348 176.396 177.654 176.067 177.952 175.733 178.253 175.399 178.542 175.056 178.825 174.708 179.109 174.361 179.383 174 179.648 173.643 179.914 173.281 180.17 172.911 180.417 172.54 180.664 172.165 180.902 171.781 181.13 171.401 181.359 171.013 181.579 170.619 181.789 170.226 181.999 169.828 182.196 169.426 182.388 169.023 182.58 168.616 182.759 168.204 182.928 167.793 183.102 167.381 183.262 166.96 183.408 166.539 183.559 166.119 183.701 165.693 183.829 165.268 183.957 164.838 184.076 164.403 184.186 163.973 184.295 163.539 184.392 163.104 184.478 162.665 184.566 162.226 184.639 161.787 184.707 161.348 184.771 160.904 184.826 160.461 184.867 160.017 184.913 159.573 184.945 159.129 184.968 158.686 184.991 158.242 185 157.794 185L27.2063 185C26.7626 185 26.3142 184.991 25.8705 184.968 25.4268 184.945 24.983 184.913 24.5397 184.867 24.096 184.826 23.6566 184.771 23.2129 184.707 22.7738 184.639 22.3348 184.566 21.9005 184.478 21.4611 184.392 21.0267 184.295 20.5967 184.186 20.1623 184.076 19.737 183.957 19.307 183.829 18.8816 183.701 18.4606 183.559 18.0399 183.408 17.6236 183.262 17.2072 183.102 16.7956 182.928 16.3839 182.759 15.9769 182.58 15.5747 182.388 15.172 182.196 14.774 181.999 14.3807 181.789 13.9874 181.579 13.6031 181.359 13.2189 181.13 12.8393 180.902 12.4596 180.664 12.089 180.417 11.7231 180.17 11.3572 179.914 11.0006 179.648 10.6437 179.383 10.2915 179.109 9.94827 178.825 9.60072 178.542 9.26685 178.253 8.93767 177.952 8.6038 177.654 8.28362 177.348 7.96776 177.032 7.65227 176.716 7.34577 176.396 7.04864 176.067 6.74683 175.733 6.45834 175.399 6.1749 175.056 5.89146 174.708 5.62134 174.361 5.35626 174 5.09083 173.643 4.83475 173.281 4.583 172.911 4.3363 172.54 4.09823 172.165 3.86953 171.781 3.64083 171.401 3.4215 171.013 3.2108 170.619 3.00047 170.226 2.80383 169.828 2.61186 169.426 2.41954 169.023 2.24126 168.616 2.07199 168.204 1.90271 167.793 1.7428 167.381 1.5919 166.96 1.44099 166.539 1.29909 166.119 1.17087 165.693 1.04302 165.268 0.923804 164.838 0.814316 164.403 0.70915 163.973 0.608306 163.539 0.521508 163.104 0.43435 162.665 0.361238 162.226 0.292808 161.787 0.2287 161.348 0.173956 160.904 0.132538 160.461 0.086798 160.017 0.0547439 159.573 0.032054 159.129 0.00900394 158.686 0 158.242 0 157.794L0 27.2063C0 26.7626 0.00900394 26.3142 0.032054 25.8705 0.0547439 25.4268 0.086798 24.983 0.132538 24.5393 0.173956 24.096 0.2287 23.6523 0.292808 23.2132 0.361238 22.7738 0.43435 22.3348 0.521508 21.9005 0.608306 21.4611 0.70915 21.0267 0.814316 20.5967 0.923804 20.1623 1.04302 19.7366 1.17087 19.307 1.29909 18.8816 1.44099 18.4606 1.5919 18.0399 1.7428 17.6189 1.90271 17.2072 2.07199 16.7956 2.24126 16.3839 2.41954 15.9769 2.61186 15.5743 2.80383 15.172 3.00047 14.774 3.2108 14.3807 3.4215 13.9874 3.64083 13.6031 3.86953 13.2189 4.09823 12.8393 4.3363 12.4596 4.583 12.089 4.83475 11.7231 5.09083 11.3572 5.35626 11.0003 5.62134 10.6437 5.89146 10.2915 6.1749 9.94827 6.45834 9.60072 6.74683 9.26685 7.04864 8.93767 7.34577 8.6038 7.65227 8.28362 7.96776 7.96776 8.28362 7.65227 8.6038 7.34577 8.93767 7.04864 9.26685 6.74647 9.60072 6.45834 9.94827 6.1749 10.2915 5.89146 10.6437 5.62134 11.0006 5.35626 11.3572 5.09083 11.7231 4.83007 12.089 4.583 12.4596 4.3363 12.8393 4.09823 13.2189 3.86953 13.6031 3.64083 13.9874 3.4215 14.3807 3.2108 14.774 3.00047 15.172 2.80383 15.5747 2.61186 15.9769 2.41954 16.3839 2.24126 16.7956 2.07199 17.2072 1.90271 17.6236 1.73812 18.0399 1.5919 18.4606 1.44063 18.8816 1.29909 19.307 1.17087 19.737 1.04302 20.1623 0.923804 20.5967 0.814316 21.0267 0.70879 21.4611 0.608306 21.9005 0.521508 22.3348 0.43471 22.7738 0.361238 23.2129 0.292808 23.6566 0.2287 24.096 0.173956 24.5397 0.132538 24.983 0.086798 25.4268 0.0547439 25.8705 0.032054 26.3142 0.00900394 26.7626 0 27.2063 0Z" stroke="#000000" stroke-width="2.2" stroke-miterlimit="1.27" fill="none" fill-rule="evenodd"/><path d="M75.0239 92.3221 77 93.8001 77 95.9409 74.4486 94.0377 74.4486 94.033C73.298 95.5096 72.714 98.2509 72.5014 101.039 73.1631 101.508 74.6709 102.512 76.5418 103.362L77 103.465 77 105.363 76.5784 105.269C74.8625 104.561 73.3865 103.692 72.4042 103.053 72.3996 103.711 72.4042 104.368 72.4261 104.98 72.4394 105.339 72.2847 105.679 72.0101 105.9 71.7358 106.116 71.3731 106.181 71.0455 106.061L71.0455 106.07 67.9874 105.026C67.9655 105.022 67.9432 105.022 67.9254 105.031 67.9035 105.045 67.8857 105.063 67.8812 105.086 67.8104 105.311 67.7132 105.583 67.6024 105.9 67.0184 107.593 66.5626 109.322 66.2396 111.089 67.0006 111.726 68.9701 113.208 72.4543 114.787L77 116.455 77 118.285 73.2129 117.023C69.5628 115.527 67.224 114.016 65.9385 113.048 65.558 116.134 65.5489 119.262 65.8942 122.353 66.5117 122.865 68.431 124.389 71.2323 125.981L77 128.176 77 130.406 74.1663 129.438C70.6361 127.883 67.8592 126.021 66.2218 124.795L66.226 124.8C66.5845 126.897 67.0536 128.972 67.6379 131.01 68.1868 133.015 68.9081 134.961 69.7754 136.837L69.7799 136.837C70.3821 137.208 72.2833 138.333 74.9636 139.474L77 140.04 77 142.052 71.2428 139.646 77 146.222 77 149 74.2939 146.776C70.8469 142.856 67.7871 137.838 66.0315 131.483 61.9999 116.879 64.9339 108.471 66.0403 105.307 66.1378 105.008 66.226 104.755 66.2925 104.548 66.434 104.088 66.7529 103.702 67.1689 103.481 67.5804 103.26 68.0672 103.218 68.514 103.375L68.514 103.37 70.7357 104.129C70.696 101.236 70.9525 95.0543 73.6168 92.4188 74.006 92.0371 74.5946 92.0001 75.0284 92.3268L75.0239 92.3221Z" fill-rule="evenodd"/><path d="M89 161 89 164.155 84.656 171.711C84.5883 171.827 84.5883 171.98 84.6522 172.096 84.7196 172.211 84.8391 172.271 84.9548 172.244L86.1611 172.008C86.2407 171.989 86.3162 171.938 86.3601 171.855L86.3561 171.855 89 167.238 89 170.396 87.6103 172.823C87.3354 173.309 86.9056 173.634 86.4197 173.726L86.4119 173.736 85.2056 173.972C85.1059 173.99 84.9983 174 84.8908 174 84.2262 173.995 83.6209 173.569 83.3105 172.888 82.9998 172.207 83.0396 171.377 83.4058 170.733L89 161Z" fill-rule="evenodd"/><path d="M77 146 81.003 150.403 81.0076 150.403C82.3006 150.794 84.5778 151.366 86.9386 151.699L89 151.654 89 153.531 85.0308 153.113 89 154.982 89 157 85.0223 155.07 77 148.723 77 146Z" fill-rule="evenodd"/><path d="M77 140 84.9616 142.114 89 141.958 89 143.896 87.95 144 87.9457 143.991C84.4742 143.991 81.1314 143.329 78.226 142.451L77 141.96 77 140Z" fill-rule="evenodd"/><path d="M77 128 81.9505 129.818 89 129.924 89 131.819 86.8102 132 86.8059 131.995C84.4383 131.995 82.1641 131.689 80.0327 131.191L77 130.191 77 128Z" fill-rule="evenodd"/><path d="M87.707 75.074C88.0447 75.1527 88.3285 75.3796 88.4818 75.6946L89 76.7632 89 80.5416 88.7116 80.0668C88.6981 80.0482 88.6889 80.0296 88.6754 80.0066L87.2877 77.149C85.702 78.6818 84.4 80.4975 83.4358 82.4982L83.4358 82.5029C83.3141 83.0124 82.5887 86.3517 82.7015 91.562 82.8186 96.7816 83.8143 104.998 87.9276 114.525L89 118.009 89 123 88.5584 121.236C85.2344 120.778 82.3102 120.177 79.7521 119.501L77 118.594 77 116.751 78.8894 117.436C81.4734 118.187 84.4823 118.867 87.9546 119.383 87.4636 117.924 86.9365 116.539 86.3731 115.233 85.1748 112.464 84.1567 109.611 83.323 106.698 82.9807 106.73 82.6337 106.748 82.2868 106.753L77 105.583 77 103.671 82.8636 104.979C81.5347 99.9033 80.8994 94.6559 80.9803 89.3899 80.4396 91.6177 80.075 93.8872 79.8947 96.1704 79.8678 96.5687 79.6333 96.9158 79.2775 97.0872 78.9259 97.2543 78.5162 97.2123 78.2008 96.9808L77 96.0949 77 93.9397 78.2998 94.9013C78.7141 90.9923 80.3903 80.6828 86.7516 75.3103 87.0173 75.0878 87.3735 74.9999 87.707 75.074Z" fill-rule="evenodd"/><path d="M89 118 92.4444 127.861C93.5501 132.272 94.2525 136.354 94.6637 139.172L94.9999 142.252 94.9999 161.841 89 170 89 166.902 94.5385 159.372C94.3729 159.3 94.2426 159.236 94.1422 159.19 94.0016 159.127 93.8562 159.072 93.6954 159.031L93.7057 159.031C93.5098 158.981 93.1989 158.886 92.7825 158.754L89 163.877 89 160.782 90.9563 158.131 89 157.272 89 155.238 93.56 157.181C93.7409 155.986 93.8412 154.777 93.8562 153.572 92.7375 153.813 91.5935 153.926 90.4447 153.913L89 153.775 89 151.882 93.8661 151.786C93.8412 149.413 93.6654 146.636 93.3443 143.631L89 144.025 89 142.059 93.1487 141.913C92.7572 138.735 92.2006 135.367 91.488 132.003L89 132.189 89 130.284 91.1068 130.313 89 122.898 89 118Z" fill-rule="evenodd"/><path d="M94.9999 68.0001 94.9999 71.1433 92.9994 73.726C91.7313 76.4094 91.1194 78.8255 90.8761 79.948 90.8611 80.02 90.8409 80.0867 90.8109 80.1538L94.9999 85.729 94.9999 89 93.8527 87.6469C92.0169 85.239 90.5328 83.0924 89.6325 81.749L89 80.7833 89 76.8779 89.4713 77.7795C89.9805 75.9963 90.8737 73.4784 92.3531 70.9247L94.9999 68.0001Z" fill-rule="evenodd"/><path d="M94.9999 142 95.4747 147.374C95.6211 150.014 95.6616 152.406 95.593 154.402L100 145.379 100 149.023 96.9865 155.196 100 153.004 100 155.281 99.9066 155.144C98.144 156.43 96.7586 157.525 95.8957 158.231L100 159.771 100 161.38 96.0535 160.231 94.9999 162 94.9999 142Z" fill-rule="evenodd"/><path d="M99.0326 64.1111C99.3395 64.2266 99.5849 64.4856 99.6912 64.8328 99.7034 64.87 99.7115 64.9068 99.7198 64.9487L100 66.4832 100 72.5979 99.4825 72.2361C99.4703 72.1989 99.4622 72.1665 99.4538 72.125L99.0448 69.8854C98.3025 72.7487 97.6246 78.4119 99.439 88.0045L100 90.2495 100 96.9999 99.2944 94.4831 95.0694 88.574 95.0694 85.4123 98.3782 90.6332C94.9999 75.0309 97.6748 68.3632 98.4845 66.8177L98.3782 66.2486 95.0694 71.314 95.0694 68.2758 98.1289 64.2684C98.3904 64.0553 98.726 63.9999 99.0326 64.1111Z" fill-rule="evenodd"/><path d="M108 149 108 150.881 101.544 154.136C101.837 154.907 102.526 156.362 103.983 157.871L108 160.184 108 163 100 161.149 100 159.581 105.034 161.082 100 155.205 100 152.986 101.733 151.984 108 149Z" fill-rule="evenodd"/><path d="M108 132 108 135.64 100 149 100 145.355 108 132Z" fill-rule="evenodd"/><path d="M100 90.0001 102.704 98.6451C104.841 104.271 106.521 110.279 107.782 115.569L108 116.567 108 126 106.671 119.311C105.367 113.365 103.459 106.003 100.878 99.2106L100 96.709 100 90.0001Z" fill-rule="evenodd"/><path d="M108 54 108 56.5227 103.828 62.7927C103.986 63.4733 104.552 65.6196 105.838 68.0381L108 70.3858 108 73.9999 104.093 68.7843C103.594 67.8526 103.167 66.8936 102.796 65.9073 102.282 67.8116 101.916 69.7476 101.707 71.6975 101.656 72.2092 101.219 72.6202 100.649 72.6749L100 72.3149 100 66.2802 100.359 67.8389C100.814 65.5851 101.565 62.907 102.799 60.381L108 54Z" fill-rule="evenodd"/><path d="M108 160 110.366 161.978 110.366 161.973 112 161.839 112 164 110.044 163.871 110.044 163.886C110.036 163.876 110.024 163.876 110.016 163.871L108 163.194 108 160Z" fill-rule="evenodd"/><path d="M112 147 112 148.903 111.324 149.193 112 150.318 112 153 109.964 149.943 108 151.185 108 149.341 111.775 147.086 112 147Z" fill-rule="evenodd"/><path d="M108 117 109.068 123.156C109.401 125.268 109.656 127.069 109.837 128.424L112 122.959 112 127.144 111.364 128.754 112 128.427 112 130.737 110.02 131.818 110.012 131.814 108 136 108 132.455 108.656 131.09C108.591 130.54 108.422 129.153 108.142 127.172L108 126.272 108 117Z" fill-rule="evenodd"/><path d="M108.922 54.1104C109.237 54.2251 109.487 54.5147 109.591 54.8872 109.595 54.9104 109.598 54.9285 109.602 54.9516L110.314 58.4365 112 54.5676 112 58.413 111.312 60.1926C111.225 60.4315 111.149 60.6476 111.086 60.8177 111.042 61.3947 110.887 64.1314 111.373 68.1061L112 71.364 112 78 111.973 77.9287 111.977 77.9244C110.519 77.1497 109.184 76.0221 108.002 74.577L108 74.5734 108 70.9354 111.261 75.4969C109.439 68.7066 109.459 63.3325 109.547 61.3325 109.42 61.1993 109.316 61.0338 109.268 60.8409 109.265 60.8177 109.256 60.804 109.252 60.7808L108.342 56.3171 108 56.9792 108 54.4391 108.103 54.2758C108.338 54.0644 108.644 54 108.922 54.1104Z" fill-rule="evenodd"/><path d="M120 161 120 163.193 114.185 164 114.18 164 112 163.879 112 161.551 120 161Z" fill-rule="evenodd"/><path d="M112 150 113.091 151.461C114.427 153.072 116.291 155.007 118.631 156.682L120 157.278 120 159 114.088 155.274 112 152.751 112 150Z" fill-rule="evenodd"/><path d="M120 144 120 145.854 112 149 112 146.779 120 144Z" fill-rule="evenodd"/><path d="M120 125 120 127.286 112 131 112 128.496 120 125Z" fill-rule="evenodd"/><path d="M120 107 120 111.148 112 127 112 122.823 120 107Z" fill-rule="evenodd"/><path d="M112 71.0002 112.863 74.5877C113.702 77.1278 114.864 79.8665 116.471 82.686L120 91.5582 120 100 119.687 97.7076C118.905 93.4531 117.458 88.215 114.779 83.5113L112 77.7667 112 71.0002Z" fill-rule="evenodd"/><path d="M116.512 50.1957C117.161 49.9998 117.855 50.2914 118.104 50.8563L118.104 50.8606 120 55.1238 120 58.7859 119.442 58.5037 119.452 58.5084 116.583 52.0768C115.782 52.5642 114.951 53.5615 114.185 54.7322 114.74 55.5886 116.151 57.6645 118.171 59.9555L120 61.5142 120 63.9999 118.248 62.7357C115.889 60.3371 114.112 57.9342 113.121 56.4859L112 58.74 112 54.9301 112.919 53.2908C114.029 51.7386 115.227 50.583 116.512 50.1957Z" fill-rule="evenodd"/><path d="M120 157 126.15 160.084 127 159.686 127 161.323 124.457 162.414 120 163 120 161.181 123.092 160.979 120 158.735 120 157Z" fill-rule="evenodd"/><path d="M127 141 127 143.044 124.357 144.061 124.357 144.065C124.095 144.127 123.829 144.185 123.568 144.252L127 147.753 127 150 126.411 149.635C124.743 148.129 123.177 146.498 121.726 144.758L120 145.475 120 143.762 124.011 142.292 127 141Z" fill-rule="evenodd"/><path d="M127 122 127 123.788 120 127 120 125.023 127 122Z" fill-rule="evenodd"/><path d="M127 84.9999 127 91.3205 125.413 97.1477 125.418 97.1477C124.792 98.9727 124.135 100.82 123.439 102.695L127 100.226 127 102.342 123.778 104.603C122.72 105.491 122.236 106.051 122.094 106.228L120 111 120 106.825 120.528 105.624C120.52 105.251 120.491 104.273 120.378 102.873L120 99.8113 120 91.6347 120.576 93.2383C121.36 96.5279 121.766 99.545 121.974 101.797 122.631 100.035 123.248 98.2963 123.829 96.5801L127 84.9999Z" fill-rule="evenodd"/><path d="M126.083 34.2185C126.279 34.332 126.518 34.4595 126.793 34.6049L127 34.7453 127 39.5012 126.274 44.3328 127 45.0798 127 47.5142 125.231 45.6972C124.056 47.3846 123.173 49.2764 122.64 51.2775 122.807 52.0894 123.494 55.3717 124.702 59.5845L127 65.74 127 71.0002 126.017 68.8555 120 63.9011 120 61.4194 125.089 66.3677C123.807 62.7294 122.715 59.0319 121.815 55.289 121.66 56.4077 121.584 57.3764 121.553 58.0676 121.531 58.5818 121.162 58.9954 120.67 59.0817L120 58.695 120 55.0383 120.115 55.3345C120.546 52.0009 121.66 47.2073 124.539 43.8554 126.62 41.4361 125.121 36.8606 124.615 35.5145 124.459 35.1005 124.575 34.6231 124.903 34.332 125.236 34.0455 125.711 34 126.088 34.2228L126.083 34.2185Z" fill-rule="evenodd"/><path d="M131 158 131 159.93 127 162 127 160.264 131 158Z" fill-rule="evenodd"/><path d="M127 148 127.383 148.439 131 151.397 131 153 127 150.214 127 148Z" fill-rule="evenodd"/><path d="M131 140 131 141.69 127 143 127 141.472 131 140Z" fill-rule="evenodd"/><path d="M131 120 131 121.926 128.435 123.165 127 124 127 122.01 128.018 121.453 128.014 121.453 131 120Z" fill-rule="evenodd"/><path d="M131 96.9999 131 99.0374 128.667 100.593 127 102 127 99.766 127.468 99.3763 131 96.9999Z" fill-rule="evenodd"/><path d="M127 34 130.775 36.9531 131 37.3328 131 39.6903 128.412 36.9636C128.996 38.1181 129.621 39.5961 130.195 41.4502L131 45.1256 131 75.2246 130.648 75.5354 127 91.0001 127 84.5951 129.14 75.572 129.14 75.5673 128.988 75.6735 127 70.6751 127 65.3539 129.533 73.175C130.301 68.3585 130.729 63.4724 130.819 58.5682 130.858 56.0791 130.76 53.581 130.531 51.1014L130.531 51.0966 127 46.917 127 44.4543 130.176 48.2214C129.436 43.2709 128.19 39.9356 127.126 37.8421L127 38.8111 127 34Z" fill-rule="evenodd"/><path d="M135 156 135 158.024 133.158 159.191 131 160 131 158.081 132.147 157.612 135 156Z" fill-rule="evenodd"/><path d="M131 151 133.046 152.343 135 152.991 135 155 131 152.765 131 151Z" fill-rule="evenodd"/><path d="M135 138 135 140.058 133.778 140.708 133.773 140.708 135 141.103 135 143 131.58 141.67 131 141.849 131 139.671 133.752 138.72 135 138Z" fill-rule="evenodd"/><path d="M135 118 135 120.317 131 122 131 119.696 135 118Z" fill-rule="evenodd"/><path d="M135 94.9999 135 97.1441 131 99 131 97.0533 134.136 95.5852 135 94.9999Z" fill-rule="evenodd"/><path d="M131 38.0002 135 42.8101 135 47.6403 132.361 51.2469C132.693 53.7403 132.826 56.2514 132.778 58.7582L131.041 72.9713 135 70.4284 135 72.4924 131 74.9999 131 45.6095 131.923 48.6056 134.548 45.016 134.553 45.016C133.551 43.1002 132.364 41.5961 131.132 40.4013L131 40.3022 131 38.0002Z" fill-rule="evenodd"/><path d="M135 141 139.778 142.773 148 143.305 148 146.43 141.7 153.345 135 158 135 156.06 135.96 155.465 135 154.917 135 153.124 137.904 154.108 137.904 154.099C142.222 150.932 145.035 147.83 146.909 145.214 146.395 145.246 145.89 145.269 145.39 145.269 142.201 145.269 139.244 144.566 136.891 143.751L135 142.906 135 141Z" fill-rule="evenodd"/><path d="M148 129 148 131.226 145.876 132.975C144.699 133.861 143.549 134.698 142.404 135.486 143.764 135.748 145.689 135.94 147.283 135.352L148 134.484 148 137.437 147.456 137.186C147.414 137.164 147.372 137.142 147.33 137.11 146.517 137.324 145.671 137.431 144.83 137.427 143.367 137.404 141.914 137.177 140.516 136.759L135 140 135 138.011 143.641 132.494 148 129Z" fill-rule="evenodd"/><path d="M148 110 148 112.267 147.208 113.04 148 112.993 148 114.305 145.283 114.532 145.283 114.537C143.126 116.113 140.685 117.602 137.896 118.937L135 120 135 118.233 137.291 117.386C141.415 115.384 144.747 113.032 147.498 110.563L148 110Z" fill-rule="evenodd"/><path d="M148 81.0001 148 84.5655 145.601 88.0006 148 88.1405 148 89.8754 144.362 89.495 144.362 89.4904C141.376 92.9399 138.25 95.4541 135.031 96.9841L135 96.9999 135 94.9042 141.739 89.7951 148 81.0001Z" fill-rule="evenodd"/><path d="M135 41.9999 136.414 44.0314C137.147 45.7958 138.063 46.8561 139.035 47.9725 140.867 50.0698 142.75 52.2376 143.47 58.7731L148 56.7176 148 60.641 141.489 67.9313C143.259 68.7056 145.236 68.8745 147.115 68.4241L147.105 68.4193C147.115 68.4101 147.115 68.4005 147.119 68.3912 147.194 68.1895 147.297 67.9221 147.418 67.6169L147.423 67.6217 148 66.0114 148 69.9451 145.059 70.4648C143.32 70.4508 141.596 70.0285 140.049 69.2169L135 72.9999 135 70.8442 138.8 67.9272C141.667 65.4484 144.757 62.3998 147.395 58.9372L143.306 60.7998C142.989 60.9454 142.624 60.9313 142.325 60.7529 142.031 60.5793 141.834 60.2697 141.811 59.918L141.806 59.918C141.222 53.1803 139.512 51.2194 137.708 49.141 136.876 48.2355 136.143 47.2547 135.516 46.2037L135.512 46.2085 135 47.0445 135 41.9999Z" fill-rule="evenodd"/><path d="M149.487 56.2503C149.998 56 150.61 56.2231 150.874 56.7652L150.878 56.7652C151.933 58.9234 150.785 63.081 149.368 67.0884L152.146 65.1621C152.163 65.1532 152.184 65.1396 152.201 65.1302 152.516 64.9438 152.891 64.9345 153.214 65.0987 153.495 65.2489 153.695 65.5358 153.742 65.8682 154.516 71.3098 154.12 79.8573 152.78 84.3111L156.23 81.7792C156.26 81.7563 156.286 81.729 156.324 81.7154 156.626 81.5515 156.975 81.5515 157.277 81.7154 157.579 81.8703 157.792 82.1661 157.851 82.5168 159 88.9058 156.23 96.4604 154.635 99.8851L156.579 99.1429C156.881 99.0288 157.226 99.0654 157.498 99.2476 157.779 99.4297 157.958 99.7392 157.996 100.086L157.996 100.09C158.915 108.355 153.495 116.834 151.291 119.899L155.103 120.482C155.614 120.564 156.001 121.019 156.026 121.57L156.022 121.57C156.171 125.555 150.827 133.16 148.913 135.564L150.985 136.639C151.393 136.844 151.704 137.217 151.848 137.668 151.997 138.128 151.972 138.629 151.772 139.057 151.682 139.253 151.58 139.499 151.461 139.785 150.987 140.926 150.22 142.778 148.805 145.046L148 146 148 142.926 148.151 142.937C148.849 141.698 149.461 140.409 149.993 139.084 150.121 138.784 150.227 138.52 150.325 138.306 150.338 138.283 150.338 138.26 150.329 138.237 150.325 138.215 150.308 138.196 150.287 138.187L148 137.004 148 133.984 149.938 131.349C151.031 129.707 152.216 127.75 153.095 125.938L148 130.651 148 128.374 150.91 125.753C152.716 123.989 153.955 122.664 154.393 122.189 154.393 122.162 154.401 122.135 154.401 122.103L150.04 121.438C149.679 121.388 149.372 121.124 149.236 120.755 149.108 120.391 149.168 119.981 149.402 119.676 150.87 117.745 152.176 115.669 153.304 113.487L148 114.003 148 112.614 150.538 112.44C151.776 112.225 153.114 111.83 154.401 111.138 155.703 108.077 156.681 104.521 156.469 101.005L156.154 101.128C155.067 102.98 153.831 104.927 152.375 106.88L148 111.845 148 109.446 153.661 102.08C153.265 102.212 152.831 102.066 152.572 101.725L152.567 101.725C152.304 101.365 152.274 100.86 152.504 100.468L152.499 100.468C153.516 98.7467 155.614 93.8422 156.29 88.7738 154.022 89.9076 151.572 90.2447 149.479 90.2447L148 90.0718 148 88.3059 150.567 88.4733C152.492 88.3546 154.612 87.8925 156.486 86.7199 156.541 85.7228 156.511 84.7256 156.405 83.7327L156.405 83.7281 151.857 87.0706C151.831 87.0936 151.797 87.1162 151.768 87.1298 151.338 87.3621 150.823 87.2391 150.525 86.8476 150.223 86.4514 150.219 85.8866 150.517 85.4857L150.512 85.4857C151.376 84.3294 152.104 80.6408 152.397 76.3645 151.64 78.0907 150.627 80.2127 149.372 82.4713L148 84.6671 148 81.0381 149.527 78.6411C151.271 75.1174 152.313 72.3306 152.538 71.7107 152.529 70.176 152.44 68.6413 152.274 67.116L152.274 67.1113 148.687 69.6069C148.67 69.6206 148.649 69.6295 148.632 69.6432 148.602 69.6568 148.564 69.6751 148.53 69.6934L148.525 69.6934C148.5 69.7117 148.466 69.716 148.44 69.7253L148 69.8081 148 65.9901 148.838 63.4984C149.323 61.8311 149.723 60.0508 149.687 58.7642L148 60.7776 148 56.9696 149.487 56.2503Z" fill-rule="evenodd"/><path d="M19.9999 65 19.9999 67.7811 18.9999 68.0001 19.9999 65Z" fill-rule="evenodd"/><path d="M19.9999 40.9999 19.9999 42.2857 15.5729 44.4998 19.9999 46.7144 19.9999 48.0001 13.0001 44.4998 19.9999 40.9999Z" fill-rule="evenodd"/><path d="M18.9999 21 19.9999 21.2185 19.9999 24.0001 18.9999 21Z" fill-rule="evenodd"/><path d="M25.6706 55 26.0001 55.4752 26.0001 57.6531 25.7998 57.3633 20.7442 66.6519 26.0001 65.9497 26.0001 67.195 19.9999 68.0001 19.9999 65.4211 25.6706 55Z" fill-rule="evenodd"/><path d="M26.0001 38.0002 26.0001 50.9999 19.9999 48.1133 19.9999 46.7857 24.7496 49.0714 24.7496 39.9287 19.9999 42.2143 19.9999 40.887 26.0001 38.0002Z" fill-rule="evenodd"/><path d="M19.9999 22 26.0001 22.8029 26.0001 24.0543 20.7442 23.3525 25.8045 32.6365 26.0001 32.3535 26.0001 34.5242 25.6706 35.0001 19.9999 24.5855 19.9999 22Z" fill-rule="evenodd"/><path d="M37.0001 67 43 69.3742 43 70.719 38.4428 68.9135 39.3624 79.4608 43 76.3819 43 78.0273 38.311 82.0002 37.0001 67Z" fill-rule="evenodd"/><path d="M26.0001 55 34 65.9789 26.0001 67 26.0001 65.725 31.6548 65.0061 26.0001 57.23 26.0001 55Z" fill-rule="evenodd"/><path d="M43 24.0001 43 25.5775 40.6948 26.69C37.5708 28.7932 35.0197 31.7804 33.3494 35.3161L43 35.3161 43 36.5656 32.7802 36.5656C31.7461 39.1571 31.1728 42.0077 31.1728 45.0019 31.1728 50.9669 33.4503 56.3744 37.1271 60.2908L43 64.5115 43 66 36.2897 61.181C32.4032 57.0408 29.9999 51.321 29.9999 45.0019 29.9999 38.6827 32.4032 32.9618 36.2897 28.8205L43 24.0001Z" fill-rule="evenodd"/><path d="M26.0001 23 34 23.9333 26.0001 34 26.0001 31.9629 31.6632 24.8336 26.0001 24.1744 26.0001 23Z" fill-rule="evenodd"/><path d="M38.311 6.99987 43 10.9727 43 12.6178 39.3669 9.53883 38.4477 20.0909 43 18.2865 43 19.6258 37.0001 22 38.311 6.99987Z" fill-rule="evenodd"/><path d="M61.9999 70.0001 61.9999 71.2434 57.4146 72.9132 61.9999 76.4817 61.9999 78 55 72.5474 61.9999 70.0001Z" fill-rule="evenodd"/><path d="M43 70.0001 49.9998 72.547 43 78 43 76.4788 47.5821 72.9127 43 71.2434 43 70.0001Z" fill-rule="evenodd"/><path d="M61.9999 63.9999 61.9999 65.2046 61.3938 65.5302C58.5867 66.4768 55.5 67 52.2602 67 49.0204 67 45.9342 66.4768 43.1274 65.5302L43 65.4617 43 64.2446 43.6359 64.5869C46.2884 65.4828 49.2031 65.9786 52.2602 65.9786 54.4251 65.9786 56.5175 65.7296 58.4948 65.2656L61.9999 63.9999Z" fill-rule="evenodd"/><path d="M50.9999 52.9999 61.9999 52.9999 61.9999 56 50.9999 56 50.9999 52.9999" fill-rule="evenodd"/><path d="M43 35.0001 54 35.0001 54 38.9998 43 38.9998 43 35.0001" fill-rule="evenodd"/><path d="M52.2602 22C55.5 22 58.5867 22.6949 61.3938 23.9518L61.9999 24.3845 61.9999 26.0001 60.8853 25.2044C58.2325 24.0143 55.3173 23.3562 52.2602 23.3562 50.0965 23.3562 48.0049 23.6872 46.0279 24.3034L43 25.7553 43 24.0428 43.1274 23.9518C45.9342 22.6949 49.0204 22 52.2602 22Z" fill-rule="evenodd"/><path d="M61.9999 11 61.9999 12.715 57.4146 16.7317 61.9999 18.6106 61.9999 19.9999 55 17.1339 61.9999 11Z" fill-rule="evenodd"/><path d="M43 11 49.9998 17.1347 43 19.9999 43 18.6069 47.5821 16.7282 43 12.711 43 11Z" fill-rule="evenodd"/><path d="M67 67 65.9116 82.0002 61.9999 78.0233 61.9999 76.3819 65.0313 79.4608 65.7977 68.9135 61.9999 70.719 61.9999 69.3749 67 67Z" fill-rule="evenodd"/><path d="M79.0001 55 79.0001 57.2338 73.3454 65.0013 79.0001 65.7194 79.0001 67 71.0002 65.9822 79.0001 55Z" fill-rule="evenodd"/><path d="M61.9999 24.0001 68.4902 28.4657C72.5121 32.5695 74.9999 38.2394 74.9999 44.502 74.9999 50.7646 72.5121 56.4331 68.4902 60.5358L61.9999 65 61.9999 63.54 63.9332 62.6469C67.1649 60.5629 69.8042 57.6024 71.5347 54.0963L61.9999 54.0963 61.9999 52.858 72.1189 52.858C73.1887 50.2897 73.7865 47.4693 73.7865 44.502 73.7865 38.5901 71.4292 33.23 67.6239 29.3479L61.9999 25.4756 61.9999 24.0001Z" fill-rule="evenodd"/><path d="M79.0001 23 79.0001 24.1721 73.3403 24.8312 79.0001 31.9532 79.0001 34 71.0002 23.9314 79.0001 23Z" fill-rule="evenodd"/><path d="M65.9116 6.99987 67 22 61.9999 19.6248 61.9999 18.2901 65.7977 20.0956 65.0313 9.54354 61.9999 12.6247 61.9999 10.9767 65.9116 6.99987Z" fill-rule="evenodd"/><path d="M79.3248 55 84.9999 65.4224 84.9999 68.0001 79.0001 67.1974 79.0001 65.9455 84.2557 66.6473 79.2004 57.3623 79.0001 57.652 79.0001 55.4689 79.3248 55Z" fill-rule="evenodd"/><path d="M79.0001 38.0002 84.9999 40.887 84.9999 42.2143 80.2505 39.9287 80.2505 49.0714 84.9999 46.7857 84.9999 48.1133 79.0001 50.9999 79.0001 38.0002Z" fill-rule="evenodd"/><path d="M84.9999 22 84.9999 24.5858 79.3295 35.0001 79.0001 34.5245 79.0001 32.3427 79.2004 32.6322 84.2557 23.3485 79.0001 24.0503 79.0001 22.8011 84.9999 22Z" fill-rule="evenodd"/><path d="M84.9999 65 85.9999 68.0001 84.9999 67.7814 84.9999 65Z" fill-rule="evenodd"/><path d="M84.9999 40.9999 92.0001 44.4998 84.9999 48.0001 84.9999 46.7144 89.4272 44.4998 84.9999 42.2857 84.9999 40.9999Z" fill-rule="evenodd"/><path d="M85.9999 22 84.9999 24.0001 84.9999 22.1454 85.9999 22Z" fill-rule="evenodd"/></g></svg>