<?xml version="1.0" encoding="UTF-8"?>
<svg xmlns="http://www.w3.org/2000/svg" xmlns:xlink="http://www.w3.org/1999/xlink" width="120px" height="120px" viewBox="0 0 120 120" version="1.1">
<g id="surface1">
<path style=" stroke:none;fill-rule:nonzero;fill:rgb(0%,0%,0%);fill-opacity:1;" d="M 18.375 73 C 14.625 73 11.457031 71.699219 8.875 69.097656 C 6.292969 66.496094 5 63.339844 5 59.625 C 5 55.910156 6.300781 52.753906 8.902344 50.152344 C 11.503906 47.550781 14.660156 46.25 18.375 46.25 L 18.375 30.875 C 18.375 28.875 19.125 27.125 20.625 25.625 C 22.125 24.125 23.875 23.375 25.875 23.375 L 46.625 23.375 C 46.625 19.625 47.925781 16.457031 50.527344 13.875 C 53.128906 11.292969 56.285156 10 60 10 C 63.714844 10 66.871094 11.300781 69.472656 13.902344 C 72.074219 16.503906 73.375 19.660156 73.375 23.375 L 94.125 23.375 C 96.125 23.375 97.875 24.125 99.375 25.625 C 100.875 27.125 101.625 28.875 101.625 30.875 L 101.625 46.25 C 105.375 46.25 108.542969 47.550781 111.125 50.152344 C 113.707031 52.753906 115 55.910156 115 59.625 C 115 63.339844 113.699219 66.496094 111.097656 69.097656 C 108.496094 71.699219 105.339844 73 101.625 73 L 101.625 97.5 C 101.625 99.5 100.875 101.25 99.375 102.75 C 97.875 104.25 96.125 105 94.125 105 L 25.875 105 C 23.875 105 22.125 104.25 20.625 102.75 C 19.125 101.25 18.375 99.5 18.375 97.5 Z M 42.90625 60.5 C 44.300781 60.5 45.480469 60.011719 46.4375 59.03125 C 47.394531 58.054688 47.875 56.867188 47.875 55.46875 C 47.875 54.074219 47.386719 52.894531 46.40625 51.9375 C 45.429688 50.980469 44.242188 50.5 42.84375 50.5 C 41.449219 50.5 40.269531 50.988281 39.3125 51.96875 C 38.355469 52.945312 37.875 54.132812 37.875 55.53125 C 37.875 56.925781 38.363281 58.105469 39.34375 59.0625 C 40.320312 60.019531 41.507812 60.5 42.90625 60.5 Z M 77.15625 60.5 C 78.550781 60.5 79.730469 60.011719 80.6875 59.03125 C 81.644531 58.054688 82.125 56.867188 82.125 55.46875 C 82.125 54.074219 81.636719 52.894531 80.65625 51.9375 C 79.679688 50.980469 78.492188 50.5 77.09375 50.5 C 75.699219 50.5 74.519531 50.988281 73.5625 51.96875 C 72.605469 52.945312 72.125 54.132812 72.125 55.53125 C 72.125 56.925781 72.613281 58.105469 73.59375 59.0625 C 74.570312 60.019531 75.757812 60.5 77.15625 60.5 Z M 39 84.375 L 81 84.375 L 81 76.875 L 39 76.875 Z M 25.875 97.5 L 94.125 97.5 L 94.125 30.875 L 25.875 30.875 Z M 60 64.125 Z M 60 64.125 "/>
</g>
</svg>
