<svg width="364" height="48" viewBox="0 0 364 48" fill="none" xmlns="http://www.w3.org/2000/svg">
<path d="M0.148438 14.4688C0.148438 13.0781 0.414062 11.7734 0.945312 10.5547C1.47656 9.33594 2.19531 8.27344 3.10156 7.36719C4.02344 6.44531 5.09375 5.71875 6.3125 5.1875C7.53125 4.65625 8.83594 4.39062 10.2266 4.39062H25.6484V11.1172H10.2266C9.75781 11.1172 9.32031 11.2031 8.91406 11.375C8.50781 11.5469 8.14844 11.7891 7.83594 12.1016C7.53906 12.3984 7.30469 12.75 7.13281 13.1562C6.96094 13.5625 6.875 14 6.875 14.4688C6.875 14.9375 6.96094 15.3828 7.13281 15.8047C7.30469 16.2109 7.53906 16.5703 7.83594 16.8828C8.14844 17.1797 8.50781 17.4141 8.91406 17.5859C9.32031 17.7578 9.75781 17.8438 10.2266 17.8438H16.9531C18.3438 17.8438 19.6484 18.1094 20.8672 18.6406C22.1016 19.1562 23.1719 19.875 24.0781 20.7969C25 21.7031 25.7188 22.7734 26.2344 24.0078C26.7656 25.2266 27.0312 26.5312 27.0312 27.9219C27.0312 29.3125 26.7656 30.6172 26.2344 31.8359C25.7188 33.0547 25 34.125 24.0781 35.0469C23.1719 35.9531 22.1016 36.6719 20.8672 37.2031C19.6484 37.7344 18.3438 38 16.9531 38H2.02344V31.2734H16.9531C17.4219 31.2734 17.8594 31.1875 18.2656 31.0156C18.6719 30.8438 19.0234 30.6094 19.3203 30.3125C19.6328 30 19.875 29.6406 20.0469 29.2344C20.2188 28.8281 20.3047 28.3906 20.3047 27.9219C20.3047 27.4531 20.2188 27.0156 20.0469 26.6094C19.875 26.2031 19.6328 25.8516 19.3203 25.5547C19.0234 25.2422 18.6719 25 18.2656 24.8281C17.8594 24.6562 17.4219 24.5703 16.9531 24.5703H10.2266C8.83594 24.5703 7.53125 24.3047 6.3125 23.7734C5.09375 23.2422 4.02344 22.5234 3.10156 21.6172C2.19531 20.6953 1.47656 19.625 0.945312 18.4062C0.414062 17.1719 0.148438 15.8594 0.148438 14.4688ZM55.0859 38H53.5391L51.0547 34.5547C50.4453 35.1016 49.7969 35.6172 49.1094 36.1016C48.4375 36.5703 47.7266 36.9844 46.9766 37.3438C46.2266 37.6875 45.4531 37.9609 44.6562 38.1641C43.875 38.3672 43.0781 38.4688 42.2656 38.4688C40.5 38.4688 38.8359 38.1719 37.2734 37.5781C35.7266 36.9844 34.3672 36.125 33.1953 35C32.0391 33.8594 31.125 32.4688 30.4531 30.8281C29.7812 29.1875 29.4453 27.3203 29.4453 25.2266C29.4453 23.2734 29.7812 21.4844 30.4531 19.8594C31.125 18.2188 32.0391 16.8125 33.1953 15.6406C34.3672 14.4688 35.7266 13.5625 37.2734 12.9219C38.8359 12.2656 40.5 11.9375 42.2656 11.9375C43.0781 11.9375 43.8828 12.0391 44.6797 12.2422C45.4766 12.4453 46.25 12.7266 47 13.0859C47.75 13.4453 48.4609 13.8672 49.1328 14.3516C49.8203 14.8359 50.4609 15.3594 51.0547 15.9219L53.5391 12.9453H55.0859V38ZM48.6406 25.2266C48.6406 24.3516 48.4688 23.5078 48.125 22.6953C47.7969 21.8672 47.3438 21.1406 46.7656 20.5156C46.1875 19.875 45.5078 19.3672 44.7266 18.9922C43.9609 18.6016 43.1406 18.4062 42.2656 18.4062C41.3906 18.4062 40.5625 18.5547 39.7812 18.8516C39.0156 19.1484 38.3438 19.5859 37.7656 20.1641C37.2031 20.7422 36.7578 21.4609 36.4297 22.3203C36.1016 23.1641 35.9375 24.1328 35.9375 25.2266C35.9375 26.3203 36.1016 27.2969 36.4297 28.1562C36.7578 29 37.2031 29.7109 37.7656 30.2891C38.3438 30.8672 39.0156 31.3047 39.7812 31.6016C40.5625 31.8984 41.3906 32.0469 42.2656 32.0469C43.1406 32.0469 43.9609 31.8594 44.7266 31.4844C45.5078 31.0938 46.1875 30.5859 46.7656 29.9609C47.3438 29.3203 47.7969 28.5938 48.125 27.7812C48.4688 26.9531 48.6406 26.1016 48.6406 25.2266ZM77.8438 25.2266C77.8438 24.3516 77.6719 23.5078 77.3281 22.6953C77 21.8672 76.5469 21.1406 75.9688 20.5156C75.3906 19.875 74.7109 19.3672 73.9297 18.9922C73.1641 18.6016 72.3438 18.4062 71.4688 18.4062C70.5938 18.4062 69.7656 18.5547 68.9844 18.8516C68.2188 19.1484 67.5469 19.5859 66.9688 20.1641C66.4062 20.7422 65.9609 21.4609 65.6328 22.3203C65.3047 23.1641 65.1406 24.1328 65.1406 25.2266C65.1406 26.2734 65.3047 27.2188 65.6328 28.0625C65.9609 28.8906 66.4062 29.6016 66.9688 30.1953C67.5469 30.7891 68.2188 31.25 68.9844 31.5781C69.7656 31.8906 70.5938 32.0469 71.4688 32.0469C72.3438 32.0469 73.1641 31.8594 73.9297 31.4844C74.7109 31.0938 75.3906 30.5859 75.9688 29.9609C76.5469 29.3203 77 28.5938 77.3281 27.7812C77.6719 26.9531 77.8438 26.1016 77.8438 25.2266ZM84.2891 34.8359C84.2891 36.6016 83.9531 38.2578 83.2812 39.8047C82.6094 41.3516 81.6875 42.7031 80.5156 43.8594C79.3594 45.0156 78 45.9297 76.4375 46.6016C74.8906 47.2734 73.2344 47.6094 71.4688 47.6094L68.2578 47.5625V41.1641L71.4219 41.2109C72.4219 41.2109 73.2734 41.0781 73.9766 40.8125C74.6797 40.5625 75.2734 40.2109 75.7578 39.7578C76.2422 39.3203 76.625 38.8125 76.9062 38.2344C77.2031 37.6562 77.4375 37.0469 77.6094 36.4062C77.3594 36.8125 77 37.1484 76.5312 37.4141C76.0625 37.6641 75.5391 37.8672 74.9609 38.0234C74.3984 38.1953 73.8047 38.3125 73.1797 38.375C72.5703 38.4375 72 38.4688 71.4688 38.4688C69.7031 38.4688 68.0391 38.1641 66.4766 37.5547C64.9297 36.9453 63.5703 36.0781 62.3984 34.9531C61.2422 33.8125 60.3281 32.4219 59.6562 30.7812C58.9844 29.1406 58.6484 27.2891 58.6484 25.2266C58.6484 23.3359 58.9844 21.5781 59.6562 19.9531C60.3281 18.3281 61.2422 16.9219 62.3984 15.7344C63.5703 14.5469 64.9297 13.6172 66.4766 12.9453C68.0391 12.2734 69.7031 11.9375 71.4688 11.9375C72.2812 11.9375 73.0859 12.0391 73.8828 12.2422C74.6797 12.4453 75.4531 12.7266 76.2031 13.0859C76.9531 13.4453 77.6641 13.8672 78.3359 14.3516C79.0234 14.8359 79.6641 15.3594 80.2578 15.9219L82.7422 12.9453H84.2891V34.8359ZM96.7344 6.07812C96.7344 6.67187 96.6172 7.22656 96.3828 7.74219C96.1641 8.25781 95.8594 8.71094 95.4688 9.10156C95.0781 9.47656 94.6172 9.78125 94.0859 10.0156C93.5703 10.2344 93.0156 10.3438 92.4219 10.3438C91.8281 10.3438 91.2656 10.2344 90.7344 10.0156C90.2188 9.78125 89.7656 9.47656 89.375 9.10156C89 8.71094 88.6953 8.25781 88.4609 7.74219C88.2422 7.22656 88.1328 6.67187 88.1328 6.07812C88.1328 5.5 88.2422 4.95312 88.4609 4.4375C88.6953 3.90625 89 3.45312 89.375 3.07812C89.7656 2.6875 90.2188 2.38281 90.7344 2.16406C91.2656 1.92969 91.8281 1.8125 92.4219 1.8125C93.0156 1.8125 93.5703 1.92969 94.0859 2.16406C94.6172 2.38281 95.0781 2.6875 95.4688 3.07812C95.8594 3.45312 96.1641 3.90625 96.3828 4.4375C96.6172 4.95312 96.7344 5.5 96.7344 6.07812ZM95.6328 38H89.1875V12.8984H95.6328V38ZM106.93 38H100.531V12.8984H102.078L104.188 15.875C105.219 14.9375 106.391 14.2188 107.703 13.7188C109.016 13.2031 110.375 12.9453 111.781 12.9453H117.43V19.3203H111.781C111.109 19.3203 110.477 19.4453 109.883 19.6953C109.289 19.9453 108.773 20.2891 108.336 20.7266C107.898 21.1641 107.555 21.6797 107.305 22.2734C107.055 22.8672 106.93 23.5 106.93 24.1719V38ZM127.953 6.07812C127.953 6.67187 127.836 7.22656 127.602 7.74219C127.383 8.25781 127.078 8.71094 126.688 9.10156C126.297 9.47656 125.836 9.78125 125.305 10.0156C124.789 10.2344 124.234 10.3438 123.641 10.3438C123.047 10.3438 122.484 10.2344 121.953 10.0156C121.438 9.78125 120.984 9.47656 120.594 9.10156C120.219 8.71094 119.914 8.25781 119.68 7.74219C119.461 7.22656 119.352 6.67187 119.352 6.07812C119.352 5.5 119.461 4.95312 119.68 4.4375C119.914 3.90625 120.219 3.45312 120.594 3.07812C120.984 2.6875 121.438 2.38281 121.953 2.16406C122.484 1.92969 123.047 1.8125 123.641 1.8125C124.234 1.8125 124.789 1.92969 125.305 2.16406C125.836 2.38281 126.297 2.6875 126.688 3.07812C127.078 3.45312 127.383 3.90625 127.602 4.4375C127.836 4.95312 127.953 5.5 127.953 6.07812ZM126.852 38H120.406V12.8984H126.852V38ZM138.148 38H131.75V12.8984H133.297L135.406 15.3359C136.438 14.3984 137.602 13.6797 138.898 13.1797C140.211 12.6641 141.578 12.4062 143 12.4062C144.531 12.4062 145.977 12.7031 147.336 13.2969C148.695 13.875 149.883 14.6797 150.898 15.7109C151.914 16.7266 152.711 17.9219 153.289 19.2969C153.883 20.6562 154.18 22.1094 154.18 23.6562V38H147.781V23.6562C147.781 23 147.656 22.3828 147.406 21.8047C147.156 21.2109 146.812 20.6953 146.375 20.2578C145.938 19.8203 145.43 19.4766 144.852 19.2266C144.273 18.9766 143.656 18.8516 143 18.8516C142.328 18.8516 141.695 18.9766 141.102 19.2266C140.508 19.4766 139.992 19.8203 139.555 20.2578C139.117 20.6953 138.773 21.2109 138.523 21.8047C138.273 22.3828 138.148 23 138.148 23.6562V38ZM178.648 47.5625H172.203V12.8984H173.75L176.305 15.9219C176.883 15.375 177.516 14.8594 178.203 14.375C178.891 13.8906 179.602 13.4766 180.336 13.1328C181.086 12.7734 181.859 12.4922 182.656 12.2891C183.453 12.0859 184.258 11.9844 185.07 11.9844C186.836 11.9844 188.492 12.3047 190.039 12.9453C191.602 13.5703 192.961 14.4609 194.117 15.6172C195.289 16.7734 196.211 18.1719 196.883 19.8125C197.555 21.4375 197.891 23.2422 197.891 25.2266C197.891 27.2891 197.555 29.1484 196.883 30.8047C196.211 32.4453 195.289 33.8438 194.117 35C192.961 36.1406 191.602 37.0156 190.039 37.625C188.492 38.2344 186.836 38.5391 185.07 38.5391C184.508 38.5391 183.945 38.4766 183.383 38.3516C182.836 38.2266 182.289 38.0625 181.742 37.8594C181.211 37.6406 180.68 37.3984 180.148 37.1328C179.633 36.8672 179.133 36.5938 178.648 36.3125V47.5625ZM191.469 25.2266C191.469 24.1641 191.297 23.2109 190.953 22.3672C190.625 21.5234 190.172 20.8125 189.594 20.2344C189.016 19.6406 188.336 19.1875 187.555 18.875C186.773 18.5625 185.945 18.4062 185.07 18.4062C184.195 18.4062 183.367 18.5625 182.586 18.875C181.82 19.1875 181.148 19.6406 180.57 20.2344C179.992 20.8125 179.531 21.5234 179.188 22.3672C178.859 23.2109 178.695 24.1641 178.695 25.2266C178.695 26.2422 178.859 27.1719 179.188 28.0156C179.531 28.8594 179.992 29.5781 180.57 30.1719C181.148 30.7656 181.82 31.2266 182.586 31.5547C183.367 31.8828 184.195 32.0469 185.07 32.0469C185.945 32.0469 186.773 31.8828 187.555 31.5547C188.336 31.2266 189.016 30.7656 189.594 30.1719C190.172 29.5781 190.625 28.8594 190.953 28.0156C191.297 27.1719 191.469 26.2422 191.469 25.2266ZM225.711 25.2266C225.711 27.1016 225.375 28.8516 224.703 30.4766C224.031 32.0859 223.117 33.4844 221.961 34.6719C220.805 35.8438 219.445 36.7734 217.883 37.4609C216.336 38.1328 214.672 38.4688 212.891 38.4688C211.125 38.4688 209.461 38.1328 207.898 37.4609C206.352 36.7734 204.992 35.8438 203.82 34.6719C202.664 33.4844 201.75 32.0859 201.078 30.4766C200.406 28.8516 200.07 27.1016 200.07 25.2266C200.07 23.3203 200.406 21.5547 201.078 19.9297C201.75 18.3047 202.664 16.9062 203.82 15.7344C204.992 14.5469 206.352 13.6172 207.898 12.9453C209.461 12.2734 211.125 11.9375 212.891 11.9375C214.672 11.9375 216.336 12.2578 217.883 12.8984C219.445 13.5234 220.805 14.4219 221.961 15.5938C223.117 16.75 224.031 18.1484 224.703 19.7891C225.375 21.4141 225.711 23.2266 225.711 25.2266ZM219.266 25.2266C219.266 24.1953 219.094 23.2656 218.75 22.4375C218.422 21.5938 217.969 20.875 217.391 20.2812C216.812 19.6719 216.133 19.2109 215.352 18.8984C214.586 18.5703 213.766 18.4062 212.891 18.4062C212.016 18.4062 211.188 18.5703 210.406 18.8984C209.641 19.2109 208.969 19.6719 208.391 20.2812C207.828 20.875 207.383 21.5938 207.055 22.4375C206.727 23.2656 206.562 24.1953 206.562 25.2266C206.562 26.1953 206.727 27.0938 207.055 27.9219C207.383 28.75 207.828 29.4688 208.391 30.0781C208.969 30.6875 209.641 31.1719 210.406 31.5312C211.188 31.875 212.016 32.0469 212.891 32.0469C213.766 32.0469 214.586 31.8828 215.352 31.5547C216.133 31.2266 216.812 30.7656 217.391 30.1719C217.969 29.5781 218.422 28.8594 218.75 28.0156C219.094 27.1719 219.266 26.2422 219.266 25.2266ZM235.648 38H229.25V12.8984H230.797L232.906 15.875C233.938 14.9375 235.109 14.2188 236.422 13.7188C237.734 13.2031 239.094 12.9453 240.5 12.9453H246.148V19.3203H240.5C239.828 19.3203 239.195 19.4453 238.602 19.6953C238.008 19.9453 237.492 20.2891 237.055 20.7266C236.617 21.1641 236.273 21.6797 236.023 22.2734C235.773 22.8672 235.648 23.5 235.648 24.1719V38ZM261.711 38C260.164 38 258.711 37.7109 257.352 37.1328C255.992 36.5391 254.797 35.7344 253.766 34.7188C252.75 33.6875 251.945 32.4922 251.352 31.1328C250.773 29.7734 250.484 28.3203 250.484 26.7734V19.3203H247.367V12.9453H250.484V2.91406H256.859V12.9453H266.562V19.3203H256.859V26.7734C256.859 27.4453 256.984 28.0781 257.234 28.6719C257.484 29.25 257.828 29.7578 258.266 30.1953C258.703 30.6328 259.219 30.9844 259.812 31.25C260.406 31.5 261.039 31.625 261.711 31.625H266.562V38H261.711ZM278.305 38H271.906V19.2734H268.789V12.8984H271.906V11.7031C271.906 10.1562 272.195 8.70312 272.773 7.34375C273.367 5.98438 274.172 4.80469 275.188 3.80469C276.219 2.78906 277.414 1.99219 278.773 1.41406C280.133 0.820313 281.586 0.523438 283.133 0.523438H287.938V6.89844H283.133C282.445 6.89844 281.805 7.02344 281.211 7.27344C280.633 7.50781 280.125 7.84375 279.688 8.28125C279.266 8.70312 278.93 9.21094 278.68 9.80469C278.43 10.3828 278.305 11.0156 278.305 11.7031V12.8984H286.156V19.2734H278.305V38ZM312.992 25.2266C312.992 27.1016 312.656 28.8516 311.984 30.4766C311.312 32.0859 310.398 33.4844 309.242 34.6719C308.086 35.8438 306.727 36.7734 305.164 37.4609C303.617 38.1328 301.953 38.4688 300.172 38.4688C298.406 38.4688 296.742 38.1328 295.18 37.4609C293.633 36.7734 292.273 35.8438 291.102 34.6719C289.945 33.4844 289.031 32.0859 288.359 30.4766C287.688 28.8516 287.352 27.1016 287.352 25.2266C287.352 23.3203 287.688 21.5547 288.359 19.9297C289.031 18.3047 289.945 16.9062 291.102 15.7344C292.273 14.5469 293.633 13.6172 295.18 12.9453C296.742 12.2734 298.406 11.9375 300.172 11.9375C301.953 11.9375 303.617 12.2578 305.164 12.8984C306.727 13.5234 308.086 14.4219 309.242 15.5938C310.398 16.75 311.312 18.1484 311.984 19.7891C312.656 21.4141 312.992 23.2266 312.992 25.2266ZM306.547 25.2266C306.547 24.1953 306.375 23.2656 306.031 22.4375C305.703 21.5938 305.25 20.875 304.672 20.2812C304.094 19.6719 303.414 19.2109 302.633 18.8984C301.867 18.5703 301.047 18.4062 300.172 18.4062C299.297 18.4062 298.469 18.5703 297.688 18.8984C296.922 19.2109 296.25 19.6719 295.672 20.2812C295.109 20.875 294.664 21.5938 294.336 22.4375C294.008 23.2656 293.844 24.1953 293.844 25.2266C293.844 26.1953 294.008 27.0938 294.336 27.9219C294.664 28.75 295.109 29.4688 295.672 30.0781C296.25 30.6875 296.922 31.1719 297.688 31.5312C298.469 31.875 299.297 32.0469 300.172 32.0469C301.047 32.0469 301.867 31.8828 302.633 31.5547C303.414 31.2266 304.094 30.7656 304.672 30.1719C305.25 29.5781 305.703 28.8594 306.031 28.0156C306.375 27.1719 306.547 26.2422 306.547 25.2266ZM322.977 38H316.531V2.91406H322.977V38ZM335.422 6.07812C335.422 6.67187 335.305 7.22656 335.07 7.74219C334.852 8.25781 334.547 8.71094 334.156 9.10156C333.766 9.47656 333.305 9.78125 332.773 10.0156C332.258 10.2344 331.703 10.3438 331.109 10.3438C330.516 10.3438 329.953 10.2344 329.422 10.0156C328.906 9.78125 328.453 9.47656 328.062 9.10156C327.688 8.71094 327.383 8.25781 327.148 7.74219C326.93 7.22656 326.82 6.67187 326.82 6.07812C326.82 5.5 326.93 4.95312 327.148 4.4375C327.383 3.90625 327.688 3.45312 328.062 3.07812C328.453 2.6875 328.906 2.38281 329.422 2.16406C329.953 1.92969 330.516 1.8125 331.109 1.8125C331.703 1.8125 332.258 1.92969 332.773 2.16406C333.305 2.38281 333.766 2.6875 334.156 3.07812C334.547 3.45312 334.852 3.90625 335.07 4.4375C335.305 4.95312 335.422 5.5 335.422 6.07812ZM334.32 38H327.875V12.8984H334.32V38ZM363.477 25.2266C363.477 27.1016 363.141 28.8516 362.469 30.4766C361.797 32.0859 360.883 33.4844 359.727 34.6719C358.57 35.8438 357.211 36.7734 355.648 37.4609C354.102 38.1328 352.438 38.4688 350.656 38.4688C348.891 38.4688 347.227 38.1328 345.664 37.4609C344.117 36.7734 342.758 35.8438 341.586 34.6719C340.43 33.4844 339.516 32.0859 338.844 30.4766C338.172 28.8516 337.836 27.1016 337.836 25.2266C337.836 23.3203 338.172 21.5547 338.844 19.9297C339.516 18.3047 340.43 16.9062 341.586 15.7344C342.758 14.5469 344.117 13.6172 345.664 12.9453C347.227 12.2734 348.891 11.9375 350.656 11.9375C352.438 11.9375 354.102 12.2578 355.648 12.8984C357.211 13.5234 358.57 14.4219 359.727 15.5938C360.883 16.75 361.797 18.1484 362.469 19.7891C363.141 21.4141 363.477 23.2266 363.477 25.2266ZM357.031 25.2266C357.031 24.1953 356.859 23.2656 356.516 22.4375C356.188 21.5938 355.734 20.875 355.156 20.2812C354.578 19.6719 353.898 19.2109 353.117 18.8984C352.352 18.5703 351.531 18.4062 350.656 18.4062C349.781 18.4062 348.953 18.5703 348.172 18.8984C347.406 19.2109 346.734 19.6719 346.156 20.2812C345.594 20.875 345.148 21.5938 344.82 22.4375C344.492 23.2656 344.328 24.1953 344.328 25.2266C344.328 26.1953 344.492 27.0938 344.82 27.9219C345.148 28.75 345.594 29.4688 346.156 30.0781C346.734 30.6875 347.406 31.1719 348.172 31.5312C348.953 31.875 349.781 32.0469 350.656 32.0469C351.531 32.0469 352.352 31.8828 353.117 31.5547C353.898 31.2266 354.578 30.7656 355.156 30.1719C355.734 29.5781 356.188 28.8594 356.516 28.0156C356.859 27.1719 357.031 26.2422 357.031 25.2266Z" fill="#D4DBFF"/>
</svg>
